<mxfile host="app.diagrams.net" modified="2023-07-13T03:21:01.462Z" agent="Mozilla/5.0 (Windows NT 10.0; Win64; x64) AppleWebKit/537.36 (KHTML, like Gecko) Chrome/114.0.0.0 Safari/537.36" etag="hvkWLvJgz4hphMCm6DGw" version="21.6.2" type="device" pages="3">
  <diagram name="Trang-1" id="Lx1XXm5q0lfRxp8SBE-w">
    <mxGraphModel dx="1290" dy="573" grid="1" gridSize="10" guides="1" tooltips="1" connect="1" arrows="1" fold="1" page="1" pageScale="1" pageWidth="827" pageHeight="1169" math="0" shadow="0">
      <root>
        <mxCell id="0" />
        <mxCell id="1" parent="0" />
        <mxCell id="7N1dV0aIiSIHQbxvG8Ln-1" value="ADM" style="shape=umlActor;verticalLabelPosition=bottom;verticalAlign=top;html=1;outlineConnect=0;" parent="1" vertex="1">
          <mxGeometry x="60" y="200" width="130" height="240" as="geometry" />
        </mxCell>
        <mxCell id="7N1dV0aIiSIHQbxvG8Ln-2" value="Khách hàng" style="shape=umlActor;verticalLabelPosition=bottom;verticalAlign=top;html=1;outlineConnect=0;" parent="1" vertex="1">
          <mxGeometry x="650" y="200" width="140" height="240" as="geometry" />
        </mxCell>
        <mxCell id="7N1dV0aIiSIHQbxvG8Ln-4" value="&lt;font style=&quot;font-size: 24px;&quot;&gt;&lt;b&gt;SẢN PHẨM&lt;/b&gt;&lt;/font&gt;" style="text;strokeColor=none;align=center;fillColor=none;html=1;verticalAlign=middle;whiteSpace=wrap;rounded=0;" parent="1" vertex="1">
          <mxGeometry x="360" y="40" width="130" height="30" as="geometry" />
        </mxCell>
        <mxCell id="0C7Cq9LnXbDNI1Frp2iu-7" style="edgeStyle=orthogonalEdgeStyle;rounded=0;orthogonalLoop=1;jettySize=auto;html=1;exitX=0;exitY=0.5;exitDx=0;exitDy=0;" edge="1" parent="1" source="7N1dV0aIiSIHQbxvG8Ln-5" target="7N1dV0aIiSIHQbxvG8Ln-1">
          <mxGeometry relative="1" as="geometry">
            <Array as="points">
              <mxPoint x="210" y="160" />
              <mxPoint x="210" y="280" />
            </Array>
          </mxGeometry>
        </mxCell>
        <mxCell id="7N1dV0aIiSIHQbxvG8Ln-5" value="Thêm sản phẩm" style="ellipse;whiteSpace=wrap;html=1;" parent="1" vertex="1">
          <mxGeometry x="220" y="120" width="120" height="80" as="geometry" />
        </mxCell>
        <mxCell id="0C7Cq9LnXbDNI1Frp2iu-10" style="edgeStyle=orthogonalEdgeStyle;rounded=0;orthogonalLoop=1;jettySize=auto;html=1;exitX=0;exitY=0.5;exitDx=0;exitDy=0;entryX=1;entryY=0.3333333333333333;entryDx=0;entryDy=0;entryPerimeter=0;" edge="1" parent="1" source="0C7Cq9LnXbDNI1Frp2iu-1" target="7N1dV0aIiSIHQbxvG8Ln-1">
          <mxGeometry relative="1" as="geometry" />
        </mxCell>
        <mxCell id="0C7Cq9LnXbDNI1Frp2iu-1" value="Xóa sản phẩm" style="ellipse;whiteSpace=wrap;html=1;" vertex="1" parent="1">
          <mxGeometry x="240" y="220" width="120" height="80" as="geometry" />
        </mxCell>
        <mxCell id="0C7Cq9LnXbDNI1Frp2iu-11" style="edgeStyle=orthogonalEdgeStyle;rounded=0;orthogonalLoop=1;jettySize=auto;html=1;exitX=0;exitY=0.5;exitDx=0;exitDy=0;" edge="1" parent="1" source="0C7Cq9LnXbDNI1Frp2iu-2" target="7N1dV0aIiSIHQbxvG8Ln-1">
          <mxGeometry relative="1" as="geometry">
            <Array as="points">
              <mxPoint x="215" y="370" />
              <mxPoint x="215" y="280" />
            </Array>
          </mxGeometry>
        </mxCell>
        <mxCell id="0C7Cq9LnXbDNI1Frp2iu-2" value="Cập nhật sản phẩm" style="ellipse;whiteSpace=wrap;html=1;" vertex="1" parent="1">
          <mxGeometry x="240" y="330" width="120" height="80" as="geometry" />
        </mxCell>
        <mxCell id="0C7Cq9LnXbDNI1Frp2iu-12" style="edgeStyle=orthogonalEdgeStyle;rounded=0;orthogonalLoop=1;jettySize=auto;html=1;exitX=1;exitY=0.5;exitDx=0;exitDy=0;" edge="1" parent="1" source="0C7Cq9LnXbDNI1Frp2iu-3" target="7N1dV0aIiSIHQbxvG8Ln-2">
          <mxGeometry relative="1" as="geometry" />
        </mxCell>
        <mxCell id="0C7Cq9LnXbDNI1Frp2iu-3" value="Xem danh sách sản phẩm" style="ellipse;whiteSpace=wrap;html=1;" vertex="1" parent="1">
          <mxGeometry x="500" y="110" width="120" height="80" as="geometry" />
        </mxCell>
        <mxCell id="0C7Cq9LnXbDNI1Frp2iu-13" style="edgeStyle=orthogonalEdgeStyle;rounded=0;orthogonalLoop=1;jettySize=auto;html=1;exitX=1;exitY=0.5;exitDx=0;exitDy=0;" edge="1" parent="1" source="0C7Cq9LnXbDNI1Frp2iu-4" target="7N1dV0aIiSIHQbxvG8Ln-2">
          <mxGeometry relative="1" as="geometry" />
        </mxCell>
        <mxCell id="0C7Cq9LnXbDNI1Frp2iu-4" value="Xem sản phẩm theo danh mục" style="ellipse;whiteSpace=wrap;html=1;" vertex="1" parent="1">
          <mxGeometry x="470" y="210" width="120" height="80" as="geometry" />
        </mxCell>
        <mxCell id="0C7Cq9LnXbDNI1Frp2iu-14" style="edgeStyle=orthogonalEdgeStyle;rounded=0;orthogonalLoop=1;jettySize=auto;html=1;exitX=1;exitY=0.5;exitDx=0;exitDy=0;" edge="1" parent="1" source="0C7Cq9LnXbDNI1Frp2iu-5" target="7N1dV0aIiSIHQbxvG8Ln-2">
          <mxGeometry relative="1" as="geometry" />
        </mxCell>
        <mxCell id="0C7Cq9LnXbDNI1Frp2iu-5" value="Xem chi tiết sản phẩm" style="ellipse;whiteSpace=wrap;html=1;" vertex="1" parent="1">
          <mxGeometry x="470" y="310" width="120" height="80" as="geometry" />
        </mxCell>
        <mxCell id="0C7Cq9LnXbDNI1Frp2iu-15" style="edgeStyle=orthogonalEdgeStyle;rounded=0;orthogonalLoop=1;jettySize=auto;html=1;exitX=1;exitY=0;exitDx=0;exitDy=0;" edge="1" parent="1" source="0C7Cq9LnXbDNI1Frp2iu-6" target="7N1dV0aIiSIHQbxvG8Ln-2">
          <mxGeometry relative="1" as="geometry">
            <Array as="points">
              <mxPoint x="620" y="432" />
              <mxPoint x="620" y="320" />
            </Array>
          </mxGeometry>
        </mxCell>
        <mxCell id="0C7Cq9LnXbDNI1Frp2iu-6" value="Thêm sản phẩm vào giỏ hàng" style="ellipse;whiteSpace=wrap;html=1;" vertex="1" parent="1">
          <mxGeometry x="500" y="420" width="120" height="80" as="geometry" />
        </mxCell>
      </root>
    </mxGraphModel>
  </diagram>
  <diagram id="NUY9OIOV3WZIZxX3CeJf" name="Trang-2">
    <mxGraphModel dx="1290" dy="573" grid="1" gridSize="10" guides="1" tooltips="1" connect="1" arrows="1" fold="1" page="1" pageScale="1" pageWidth="827" pageHeight="1169" math="0" shadow="0">
      <root>
        <mxCell id="0" />
        <mxCell id="1" parent="0" />
        <mxCell id="_KesPXw2Dz3OD55ypL7m-1" value="&lt;font style=&quot;font-size: 24px;&quot;&gt;&lt;b style=&quot;&quot;&gt;DANH MỤC&lt;br&gt;&lt;br&gt;&lt;/b&gt;&lt;/font&gt;" style="text;html=1;align=center;verticalAlign=middle;resizable=0;points=[];autosize=1;strokeColor=none;fillColor=none;" vertex="1" parent="1">
          <mxGeometry x="330" y="20" width="150" height="70" as="geometry" />
        </mxCell>
        <mxCell id="_KesPXw2Dz3OD55ypL7m-2" value="ADM" style="shape=umlActor;verticalLabelPosition=bottom;verticalAlign=top;html=1;outlineConnect=0;" vertex="1" parent="1">
          <mxGeometry x="80" y="160" width="120" height="200" as="geometry" />
        </mxCell>
        <mxCell id="_KesPXw2Dz3OD55ypL7m-3" value="Khách hàng" style="shape=umlActor;verticalLabelPosition=bottom;verticalAlign=top;html=1;outlineConnect=0;" vertex="1" parent="1">
          <mxGeometry x="620" y="160" width="120" height="200" as="geometry" />
        </mxCell>
        <mxCell id="_KesPXw2Dz3OD55ypL7m-10" style="edgeStyle=orthogonalEdgeStyle;rounded=0;orthogonalLoop=1;jettySize=auto;html=1;exitX=0;exitY=0.5;exitDx=0;exitDy=0;" edge="1" parent="1" source="_KesPXw2Dz3OD55ypL7m-5" target="_KesPXw2Dz3OD55ypL7m-2">
          <mxGeometry relative="1" as="geometry" />
        </mxCell>
        <mxCell id="_KesPXw2Dz3OD55ypL7m-5" value="Thêm danh mục" style="ellipse;whiteSpace=wrap;html=1;" vertex="1" parent="1">
          <mxGeometry x="240" y="70" width="120" height="80" as="geometry" />
        </mxCell>
        <mxCell id="_KesPXw2Dz3OD55ypL7m-11" style="edgeStyle=orthogonalEdgeStyle;rounded=0;orthogonalLoop=1;jettySize=auto;html=1;exitX=0;exitY=0.5;exitDx=0;exitDy=0;entryX=1;entryY=0.3333333333333333;entryDx=0;entryDy=0;entryPerimeter=0;" edge="1" parent="1" source="_KesPXw2Dz3OD55ypL7m-6" target="_KesPXw2Dz3OD55ypL7m-2">
          <mxGeometry relative="1" as="geometry" />
        </mxCell>
        <mxCell id="_KesPXw2Dz3OD55ypL7m-6" value="Sửa danh mục" style="ellipse;whiteSpace=wrap;html=1;" vertex="1" parent="1">
          <mxGeometry x="250" y="180" width="120" height="80" as="geometry" />
        </mxCell>
        <mxCell id="_KesPXw2Dz3OD55ypL7m-12" style="edgeStyle=orthogonalEdgeStyle;rounded=0;orthogonalLoop=1;jettySize=auto;html=1;exitX=0;exitY=0.5;exitDx=0;exitDy=0;" edge="1" parent="1" source="_KesPXw2Dz3OD55ypL7m-7" target="_KesPXw2Dz3OD55ypL7m-2">
          <mxGeometry relative="1" as="geometry" />
        </mxCell>
        <mxCell id="_KesPXw2Dz3OD55ypL7m-7" value="Xóa danh mục" style="ellipse;whiteSpace=wrap;html=1;" vertex="1" parent="1">
          <mxGeometry x="240" y="300" width="120" height="80" as="geometry" />
        </mxCell>
        <mxCell id="_KesPXw2Dz3OD55ypL7m-9" style="edgeStyle=orthogonalEdgeStyle;rounded=0;orthogonalLoop=1;jettySize=auto;html=1;exitX=1;exitY=0.5;exitDx=0;exitDy=0;" edge="1" parent="1" source="_KesPXw2Dz3OD55ypL7m-8" target="_KesPXw2Dz3OD55ypL7m-3">
          <mxGeometry relative="1" as="geometry" />
        </mxCell>
        <mxCell id="_KesPXw2Dz3OD55ypL7m-8" value="Xem sản phẩm theo danh&amp;nbsp; mục" style="ellipse;whiteSpace=wrap;html=1;" vertex="1" parent="1">
          <mxGeometry x="460" y="200" width="120" height="80" as="geometry" />
        </mxCell>
      </root>
    </mxGraphModel>
  </diagram>
  <diagram id="51rst4xoo0UaGFbB49Jy" name="Trang-3">
    <mxGraphModel dx="1290" dy="573" grid="1" gridSize="10" guides="1" tooltips="1" connect="1" arrows="1" fold="1" page="1" pageScale="1" pageWidth="827" pageHeight="1169" math="0" shadow="0">
      <root>
        <mxCell id="0" />
        <mxCell id="1" parent="0" />
        <mxCell id="YZF8_OwJhbuaAeims4fQ-1" value="&lt;font style=&quot;font-size: 24px;&quot;&gt;&lt;b&gt;ĐƠN HÀNG&lt;/b&gt;&lt;/font&gt;" style="text;html=1;align=center;verticalAlign=middle;resizable=0;points=[];autosize=1;strokeColor=none;fillColor=none;" vertex="1" parent="1">
          <mxGeometry x="350" y="30" width="160" height="40" as="geometry" />
        </mxCell>
        <mxCell id="YZF8_OwJhbuaAeims4fQ-2" value="ADM" style="shape=umlActor;verticalLabelPosition=bottom;verticalAlign=top;html=1;outlineConnect=0;" vertex="1" parent="1">
          <mxGeometry x="110" y="160" width="90" height="170" as="geometry" />
        </mxCell>
        <mxCell id="YZF8_OwJhbuaAeims4fQ-3" value="Khách hàng" style="shape=umlActor;verticalLabelPosition=bottom;verticalAlign=top;html=1;outlineConnect=0;" vertex="1" parent="1">
          <mxGeometry x="650" y="160" width="90" height="170" as="geometry" />
        </mxCell>
        <mxCell id="YZF8_OwJhbuaAeims4fQ-4" value="Cập nhật tình trạng đơn hàng" style="ellipse;whiteSpace=wrap;html=1;" vertex="1" parent="1">
          <mxGeometry x="250" y="190" width="120" height="80" as="geometry" />
        </mxCell>
        <mxCell id="YZF8_OwJhbuaAeims4fQ-5" value="Xem chi tiết đơn hàng" style="ellipse;whiteSpace=wrap;html=1;" vertex="1" parent="1">
          <mxGeometry x="490" y="205" width="140" height="80" as="geometry" />
        </mxCell>
      </root>
    </mxGraphModel>
  </diagram>
</mxfile>
